<svg xmlns="http://www.w3.org/2000/svg" width="58" height="58" viewBox="0 0 58 58">
    <g data-name="Group 1312" transform="translate(-464 -279)">
        <circle data-name="Ellipse 268" cx="29" cy="29" r="29" transform="translate(464 279)" style="fill:#fff"/>
        <path data-name="Path 834" d="M4.176 9H0v10.023l2.969-2.728A16.04 16.04 0 0 0 31.95 9H27.9a12.029 12.029 0 0 1-21.946 4.553L10.907 9z" transform="translate(477 301.042)" style="fill:#174a9a"/>
        <path data-name="Path 835" d="M15.975 0A16.04 16.04 0 0 0 .062 14.033h4.051a12.031 12.031 0 0 1 22.134-4.258l-4.258 4.258h10.023V4.009l-2.87 2.871A16.014 16.014 0 0 0 15.975 0z" transform="translate(477.062 292)" style="fill:#174a9a"/>
    </g>
</svg>
